<svg width="30" height="30" viewBox="0 0 30 30" fill="none" xmlns="http://www.w3.org/2000/svg">
<path d="M25.9502 10.4714C25.8986 9.30185 25.7095 8.49779 25.4385 7.80107C25.159 7.06152 24.729 6.39939 24.1657 5.84897C23.6153 5.28998 22.9488 4.85562 22.2178 4.58049C21.517 4.30956 20.7172 4.12043 19.5476 4.06887C18.3693 4.01293 17.9953 4 15.0068 4C12.0184 4 11.6443 4.01293 10.4704 4.0645C9.30087 4.11606 8.49681 4.30536 7.80026 4.57612C7.06054 4.85562 6.39842 5.28561 5.84799 5.84897C5.289 6.39939 4.85481 7.06588 4.57951 7.79687C4.30858 8.49779 4.11945 9.29748 4.06789 10.467C4.01196 11.6453 3.99902 12.0194 3.99902 15.0078C3.99902 17.9963 4.01196 18.3703 4.06352 19.5442C4.11509 20.7138 4.30439 21.5178 4.57531 22.2146C4.85481 22.9541 5.289 23.6162 5.84799 24.1667C6.39842 24.7257 7.06491 25.16 7.79589 25.4351C8.49681 25.7061 9.2965 25.8952 10.4662 25.9468C11.64 25.9985 12.0142 26.0113 15.0026 26.0113C17.9911 26.0113 18.3651 25.9985 19.5391 25.9468C20.7086 25.8952 21.5127 25.7061 22.2092 25.4351C23.6885 24.8632 24.858 23.6937 25.43 22.2146C25.7007 21.5136 25.89 20.7138 25.9416 19.5442C25.9932 18.3703 26.0061 17.9963 26.0061 15.0078C26.0061 12.0194 26.0017 11.6453 25.9502 10.4714ZM23.968 19.4582C23.9206 20.5332 23.7401 21.1137 23.5896 21.5007C23.2197 22.4596 22.4586 23.2207 21.4997 23.5905C21.1127 23.741 20.528 23.9216 19.4573 23.9688C18.2963 24.0205 17.9481 24.0333 15.0112 24.0333C12.0743 24.0333 11.7218 24.0205 10.565 23.9688C9.49 23.9216 8.90951 23.741 8.52251 23.5905C8.04532 23.4142 7.61096 23.1347 7.2584 22.7692C6.89291 22.4123 6.61341 21.9823 6.43705 21.5051C6.28655 21.1181 6.10599 20.5332 6.05879 19.4626C6.00706 18.3016 5.99429 17.9533 5.99429 15.0164C5.99429 12.0795 6.00706 11.7269 6.05879 10.5703C6.10599 9.49534 6.28655 8.91485 6.43705 8.52786C6.61341 8.0505 6.89291 7.61631 7.26277 7.26358C7.61953 6.89808 8.04952 6.61859 8.52688 6.44239C8.91387 6.2919 9.49873 6.11133 10.5693 6.06397C11.7303 6.0124 12.0787 5.99947 15.0154 5.99947C17.9567 5.99947 18.3048 6.0124 19.4616 6.06397C20.5366 6.11133 21.1171 6.2919 21.5041 6.44239C21.9813 6.61859 22.4156 6.89808 22.7682 7.26358C23.1337 7.62051 23.4132 8.0505 23.5896 8.52786C23.7401 8.91485 23.9206 9.49954 23.968 10.5703C24.0196 11.7313 24.0325 12.0795 24.0325 15.0164C24.0325 17.9533 24.0196 18.2973 23.968 19.4582Z" fill="black"/>
<path d="M15.0069 9.35303C11.8853 9.35303 9.35254 11.8856 9.35254 15.0074C9.35254 18.1292 11.8853 20.6618 15.0069 20.6618C18.1288 20.6618 20.6613 18.1292 20.6613 15.0074C20.6613 11.8856 18.1288 9.35303 15.0069 9.35303ZM15.0069 18.6753C12.9818 18.6753 11.3391 17.0328 11.3391 15.0074C11.3391 12.9821 12.9818 11.3396 15.0069 11.3396C17.0323 11.3396 18.6748 12.9821 18.6748 15.0074C18.6748 17.0328 17.0323 18.6753 15.0069 18.6753V18.6753Z" fill="black"/>
<path d="M22.2057 9.12961C22.2057 9.85859 21.6146 10.4497 20.8855 10.4497C20.1565 10.4497 19.5654 9.85859 19.5654 9.12961C19.5654 8.40047 20.1565 7.80957 20.8855 7.80957C21.6146 7.80957 22.2057 8.40047 22.2057 9.12961V9.12961Z" fill="black"/>
</svg>
