<svg width="30" height="30" viewBox="0 0 30 30" fill="none" xmlns="http://www.w3.org/2000/svg">
<path d="M26.6725 8.90778C26.3917 7.86354 25.5683 7.04038 24.5243 6.7592C22.6168 6.2373 14.987 6.2373 14.987 6.2373C14.987 6.2373 7.35747 6.2373 5.45005 6.73941C4.42604 7.0203 3.58265 7.86369 3.30177 8.90778C2.7998 10.8151 2.7998 14.7705 2.7998 14.7705C2.7998 14.7705 2.7998 18.7459 3.30177 20.6332C3.58295 21.6773 4.40596 22.5004 5.4502 22.7816C7.37756 23.3037 14.9873 23.3037 14.9873 23.3037C14.9873 23.3037 22.6168 23.3037 24.5243 22.8016C25.5685 22.5205 26.3917 21.6974 26.6728 20.6533C27.1747 18.7459 27.1747 14.7906 27.1747 14.7906C27.1747 14.7906 27.1947 10.8151 26.6725 8.90778V8.90778ZM12.5578 18.4247V11.1163L18.9024 14.7705L12.5578 18.4247Z" fill="black"/>
</svg>
