<svg width="122" height="45" viewBox="0 0 122 45" fill="none" xmlns="http://www.w3.org/2000/svg">
<path d="M43.7612 44.522H30.6736C29.759 42.1724 28.8392 39.8202 27.9092 37.432H14.9632C14.3037 37.432 14.2985 37.432 14.0461 38.0709C13.2869 39.9997 12.5303 41.938 11.7763 43.8856C11.6965 44.0943 11.6011 44.2979 11.5058 44.5194H0C0.0206105 44.1046 6.56702 27.1267 7.09774 26.122H23.3697C23.3517 25.6608 21.9141 21.8092 21.3087 20.5777C21.0768 21.1188 20.8681 21.6083 20.6672 22.0797C20.4662 22.5512 20.255 23.0639 20.0386 23.5766H8.2442C8.27512 23.1025 17.2175 1.22964 17.8667 0.0239258C18.2377 0.0728757 18.6396 0.0960625 19.0389 0.181081C21.9989 0.841732 24.8413 1.94845 27.4686 3.4633C27.7726 3.63185 28.003 3.9073 28.1153 4.2362C30.7792 11.1064 33.45 17.9765 36.1276 24.8467C38.5854 31.1621 41.0449 37.4758 43.5062 43.7877C43.5912 44.0196 43.6659 44.2489 43.7612 44.522Z" fill="black"/>
<path d="M86.6752 13.1538H98.4283V32.6462H110.782V28.1943C110.601 28.1943 110.406 28.1531 110.21 28.1531C109.282 28.1531 108.355 28.1299 107.43 28.1531C107.06 28.1887 106.705 27.9946 106.536 27.6636C104.818 24.9688 103.093 22.2817 101.36 19.6023C100.801 18.7367 100.234 17.8736 99.683 17.0054C99.5764 16.8153 99.481 16.6191 99.397 16.418C99.9123 16.2711 121.239 16.2454 121.968 16.3768C121.968 16.5648 121.996 16.7658 121.996 16.9668C121.996 24.9636 121.996 32.9596 121.996 40.9548C122.027 41.3233 121.879 41.6841 121.6 41.9261C120.765 42.6629 119.956 43.4281 119.152 44.1984C118.932 44.4155 118.631 44.5296 118.323 44.5127C117.086 44.4998 115.849 44.5127 114.613 44.5127C106.741 44.5127 98.8689 44.5127 90.9957 44.5127C90.5249 44.5366 90.0667 44.3563 89.7384 44.018C88.8547 43.1524 87.935 42.3177 87.0256 41.4881C86.7681 41.2838 86.6236 40.9689 86.6365 40.6405C86.6365 31.6543 86.6365 22.669 86.6365 13.6845C86.6391 13.5351 86.6597 13.3728 86.6752 13.1538Z" fill="black"/>
<path d="M67.6536 44.5229H55.9263C55.9263 42.9771 55.9263 41.4313 55.9263 39.8855V11.9274H53.3216H45.6004C45.4458 11.4662 45.3891 1.18931 45.5205 0.127869C45.974 -0.000947021 66.5716 -0.049897 67.6279 0.0634608C67.7567 0.514315 67.7902 43.7217 67.6536 44.5229Z" fill="black"/>
<path d="M114.867 0.0580852L116.756 2.79671C118.363 5.14115 119.95 7.50105 121.594 9.81716C122.042 10.4458 121.999 11.0641 121.952 11.77H86.6825C86.667 11.5819 86.6387 11.4196 86.6387 11.2547C86.6387 8.8227 86.6387 6.39066 86.6387 3.9612C86.6247 3.65198 86.7586 3.35454 86.9994 3.15997C88.0299 2.23765 89.0467 1.30416 90.0497 0.359514C90.2653 0.140197 90.5615 0.0190998 90.869 0.0245931C98.7388 0.0348984 106.609 0.0348984 114.481 0.0245931C114.597 0.0374747 114.72 0.0503563 114.867 0.0580852Z" fill="black"/>
<path d="M69.0455 0.0610352H85.2763C85.1166 0.303209 85.0187 0.486127 84.8821 0.65874C83.3896 2.70777 81.8979 4.75508 80.4071 6.80067C79.2907 8.331 78.1743 9.8639 77.0579 11.3994C76.923 11.6551 76.6566 11.8142 76.3674 11.8116C74.0487 11.7961 71.7146 11.8116 69.3856 11.8116C69.2877 11.8116 69.1872 11.7936 69.043 11.7781L69.0455 0.0610352Z" fill="black"/>
</svg>
