<svg width="26" height="26" viewBox="0 0 26 26" fill="none" xmlns="http://www.w3.org/2000/svg">
<path d="M24.9429 7.3534C24.8843 6.02445 24.6694 5.11081 24.3616 4.31913C24.044 3.47878 23.5554 2.72642 22.9153 2.10097C22.2898 1.46579 21.5325 0.972234 20.7019 0.659608C19.9056 0.351753 18.9967 0.136846 17.6678 0.078252C16.3289 0.0146961 15.9039 0 12.5081 0C9.11235 0 8.68731 0.0146961 7.3534 0.0732897C6.02445 0.131883 5.11081 0.346981 4.31932 0.654645C3.47878 0.972234 2.72642 1.46083 2.10097 2.10097C1.46579 2.72642 0.972425 3.48374 0.659607 4.31436C0.351752 5.11081 0.136846 6.01949 0.078252 7.34844C0.0146961 8.68731 0 9.11236 0 12.5081C0 15.9039 0.0146961 16.3289 0.0732897 17.6628C0.131883 18.9918 0.346981 19.9054 0.654836 20.6971C0.972425 21.5374 1.46579 22.2898 2.10097 22.9153C2.72642 23.5504 3.48374 24.044 4.31436 24.3566C5.11081 24.6645 6.01949 24.8794 7.34863 24.938C8.68235 24.9968 9.10758 25.0113 12.5033 25.0113C15.8991 25.0113 16.3241 24.9968 17.658 24.938C18.987 24.8794 19.9006 24.6645 20.6921 24.3566C22.373 23.7067 23.702 22.3778 24.3518 20.6971C24.6595 19.9006 24.8746 18.9918 24.9332 17.6628C24.9918 16.3289 25.0065 15.9039 25.0065 12.5081C25.0065 9.11236 25.0015 8.68731 24.9429 7.3534ZM22.6906 17.5651C22.6368 18.7866 22.4316 19.4462 22.2606 19.8859C21.8403 20.9756 20.9756 21.8403 19.8859 22.2606C19.4462 22.4316 18.7818 22.6368 17.5651 22.6904C16.2459 22.7492 15.8502 22.7637 12.5131 22.7637C9.17591 22.7637 8.7753 22.7492 7.46085 22.6904C6.23936 22.6368 5.57975 22.4316 5.14001 22.2606C4.59778 22.0602 4.10422 21.7426 3.70361 21.3273C3.2883 20.9217 2.97071 20.4331 2.77031 19.8909C2.5993 19.4512 2.39413 18.7866 2.3405 17.5701C2.28171 16.2509 2.26721 15.855 2.26721 12.5178C2.26721 9.18068 2.28171 8.78007 2.3405 7.46582C2.39413 6.24432 2.5993 5.58472 2.77031 5.14498C2.97071 4.60256 3.2883 4.10919 3.70857 3.70838C4.11396 3.29308 4.60256 2.97549 5.14498 2.77528C5.58471 2.60427 6.24928 2.39909 7.46582 2.34527C8.78503 2.28668 9.18087 2.27198 12.5178 2.27198C15.86 2.27198 16.2556 2.28668 17.5701 2.34527C18.7916 2.39909 19.4512 2.60427 19.8909 2.77528C20.4331 2.97549 20.9267 3.29308 21.3273 3.70838C21.7426 4.11396 22.0602 4.60256 22.2606 5.14498C22.4316 5.58472 22.6368 6.24909 22.6906 7.46582C22.7492 8.78503 22.7639 9.18068 22.7639 12.5178C22.7639 15.855 22.7492 16.2459 22.6906 17.5651Z" fill="#707274"/>
<path d="M12.5081 6.08276C8.96096 6.08276 6.08301 8.96053 6.08301 12.5078C6.08301 16.0551 8.96096 18.9329 12.5081 18.9329C16.0554 18.9329 18.9331 16.0551 18.9331 12.5078C18.9331 8.96053 16.0554 6.08276 12.5081 6.08276ZM12.5081 16.6756C10.2069 16.6756 8.34029 14.8092 8.34029 12.5078C8.34029 10.2065 10.2069 8.34005 12.5081 8.34005C14.8094 8.34005 16.6759 10.2065 16.6759 12.5078C16.6759 14.8092 14.8094 16.6756 12.5081 16.6756Z" fill="#707274"/>
<path d="M20.6876 5.82808C20.6876 6.65641 20.016 7.32804 19.1875 7.32804C18.3591 7.32804 17.6875 6.65641 17.6875 5.82808C17.6875 4.99957 18.3591 4.32812 19.1875 4.32812C20.016 4.32812 20.6876 4.99957 20.6876 5.82808Z" fill="#707274"/>
</svg>
