<svg width="24" height="24" viewBox="0 0 24 24" fill="none" xmlns="http://www.w3.org/2000/svg">
<path fill-rule="evenodd" clip-rule="evenodd" d="M19.2226 11.5999C18.3267 11.5999 17.6004 12.3262 17.6004 13.2221V14.8888C17.6004 15.2202 17.3318 15.4888 17.0004 15.4888C16.6691 15.4888 16.4004 15.2202 16.4004 14.8888V13.2221C16.4004 11.6635 17.664 10.3999 19.2226 10.3999C20.7813 10.3999 22.0449 11.6635 22.0449 13.2221V14.8888C22.0449 15.2202 21.7762 15.4888 21.4449 15.4888C21.1135 15.4888 20.8449 15.2202 20.8449 14.8888V13.2221C20.8449 12.3262 20.1186 11.5999 19.2226 11.5999Z" fill="#464646"/>
<path fill-rule="evenodd" clip-rule="evenodd" d="M6.17526 2.3999H12.8256C13.3643 2.3999 13.8048 2.39989 14.1629 2.42915C14.5335 2.45943 14.8682 2.52401 15.1808 2.68329C15.67 2.93256 16.0678 3.33031 16.317 3.81953C16.4763 4.13212 16.5409 4.46684 16.5712 4.83745C16.6004 5.19549 16.6004 5.63603 16.6004 6.1747V6.17471V6.17473V6.17474V6.17476V6.17477V8.9999C16.6004 9.33128 16.3318 9.5999 16.0004 9.5999C15.6691 9.5999 15.4004 9.33128 15.4004 8.9999V6.19991C15.4004 5.62995 15.4 5.23857 15.3752 4.93517C15.351 4.63877 15.3065 4.47955 15.2478 4.36432C15.1136 4.10089 14.8994 3.88672 14.636 3.7525C14.5208 3.69378 14.3616 3.64938 14.0652 3.62516C13.7618 3.60037 13.3704 3.59991 12.8004 3.59991H6.20039C5.63044 3.59991 5.23906 3.60037 4.93566 3.62516C4.63926 3.64938 4.48004 3.69378 4.36481 3.7525C4.10138 3.88672 3.88721 4.10089 3.75299 4.36432C3.69427 4.47955 3.64987 4.63877 3.62565 4.93517C3.60086 5.23857 3.6004 5.62995 3.6004 6.19991V17.7999C3.6004 18.3699 3.60086 18.7613 3.62565 19.0647C3.64987 19.3611 3.69427 19.5203 3.75299 19.6355C3.88721 19.8989 4.10138 20.1131 4.36481 20.2473C4.48004 20.306 4.63926 20.3505 4.93566 20.3747C5.23906 20.3995 5.63044 20.3999 6.20039 20.3999H10.429C10.7604 20.3999 11.029 20.6686 11.029 20.9999C11.029 21.3313 10.7604 21.5999 10.429 21.5999H6.17532C5.63659 21.5999 5.19601 21.5999 4.83794 21.5707C4.46733 21.5404 4.13261 21.4758 3.82002 21.3165C3.3308 21.0673 2.93305 20.6695 2.68378 20.1803C2.5245 19.8677 2.45992 19.533 2.42964 19.1624C2.40038 18.8043 2.40039 18.3638 2.40039 17.8251V17.825V6.17479V6.17472C2.40039 5.63604 2.40038 5.19549 2.42964 4.83745C2.45992 4.46684 2.5245 4.13212 2.68378 3.81953C2.93305 3.33031 3.3308 2.93256 3.82002 2.68329C4.13261 2.52401 4.46733 2.45943 4.83794 2.42915C5.19599 2.39989 5.63655 2.3999 6.17525 2.3999H6.17526ZM17.136 14.2888H14.6426H14.6425C14.1967 14.2888 13.826 14.2888 13.5236 14.3135C13.2085 14.3392 12.915 14.3948 12.638 14.5359C12.2115 14.7532 11.8648 15.0999 11.6475 15.5264C11.5064 15.8034 11.4509 16.0969 11.4251 16.412C11.4004 16.7144 11.4004 17.0851 11.4004 17.5309V17.531V18.3578C11.4004 18.8037 11.4004 19.1743 11.4251 19.4768C11.4509 19.7918 11.5064 20.0854 11.6475 20.3623C11.8648 20.7888 12.2115 21.1356 12.638 21.3529C12.915 21.494 13.2085 21.5495 13.5236 21.5752C13.8261 21.5999 14.1967 21.5999 14.6425 21.5999H14.6426H17.136H17.1361C17.582 21.5999 17.9526 21.5999 18.2551 21.5752C18.5701 21.5495 18.8636 21.494 19.1406 21.3529C19.5671 21.1356 19.9138 20.7888 20.1312 20.3623C20.2723 20.0854 20.3278 19.7918 20.3535 19.4768C20.3782 19.1743 20.3782 18.8036 20.3782 18.3577V17.531C20.3782 17.0851 20.3782 16.7145 20.3535 16.412C20.3278 16.0969 20.2723 15.8034 20.1312 15.5264C19.9138 15.0999 19.5671 14.7532 19.1406 14.5359C18.8636 14.3948 18.5701 14.3392 18.2551 14.3135C17.9526 14.2888 17.582 14.2888 17.1361 14.2888H17.136ZM13.1828 15.6051C13.2624 15.5645 13.3805 15.5292 13.6213 15.5095C13.8691 15.4893 14.1905 15.4888 14.6671 15.4888H17.1115C17.5881 15.4888 17.9095 15.4893 18.1573 15.5095C18.3982 15.5292 18.5162 15.5645 18.5958 15.6051C18.7965 15.7073 18.9597 15.8705 19.0619 16.0712C19.1025 16.1508 19.1378 16.2689 19.1575 16.5097C19.1777 16.7575 19.1782 17.0789 19.1782 17.5555V18.3333C19.1782 18.8099 19.1777 19.1312 19.1575 19.3791C19.1378 19.6199 19.1025 19.7379 19.0619 19.8175C18.9597 20.0182 18.7965 20.1814 18.5958 20.2837C18.5162 20.3242 18.3982 20.3595 18.1573 20.3792C17.9095 20.3995 17.5881 20.3999 17.1115 20.3999H14.6671C14.1905 20.3999 13.8691 20.3995 13.6213 20.3792C13.3805 20.3595 13.2624 20.3242 13.1828 20.2837C12.9821 20.1814 12.819 20.0182 12.7167 19.8175C12.6761 19.7379 12.6408 19.6199 12.6211 19.3791C12.6009 19.1312 12.6004 18.8099 12.6004 18.3333V17.5555C12.6004 17.0789 12.6009 16.7575 12.6211 16.5097C12.6408 16.2689 12.6761 16.1508 12.7167 16.0712C12.819 15.8705 12.9821 15.7073 13.1828 15.6051ZM15.8893 17.6222C15.2511 17.6222 14.7338 18.1395 14.7338 18.7777C14.7338 19.4159 15.2511 19.9333 15.8893 19.9333C16.5275 19.9333 17.0449 19.4159 17.0449 18.7777C17.0449 18.1395 16.5275 17.6222 15.8893 17.6222ZM6.55595 11.3999C5.91776 11.3999 5.4004 11.9173 5.4004 12.5555C5.4004 13.1937 5.91776 13.711 6.55595 13.711C7.19415 13.711 7.71151 13.1937 7.71151 12.5555C7.71151 11.9173 7.19415 11.3999 6.55595 11.3999Z" fill="#464646"/>
</svg>
