<svg width="25" height="25" viewBox="0 0 25 25" fill="none" xmlns="http://www.w3.org/2000/svg">
<path d="M13.2396 16.9687L13.0833 16.8437C13.0252 16.8042 12.9622 16.7727 12.8958 16.7499L12.7083 16.6666C12.5394 16.6313 12.3643 16.6385 12.1989 16.6876C12.0334 16.7367 11.8827 16.8261 11.7604 16.9478C11.6684 17.0491 11.5944 17.1654 11.5416 17.2916C11.4628 17.4814 11.4419 17.6903 11.4815 17.8919C11.5211 18.0936 11.6195 18.279 11.7642 18.4249C11.909 18.5708 12.0937 18.6706 12.295 18.7117C12.4964 18.7529 12.7054 18.7335 12.8958 18.6562C13.0203 18.5958 13.1359 18.5187 13.2396 18.427C13.3841 18.2805 13.482 18.0945 13.5209 17.8924C13.5599 17.6904 13.5381 17.4813 13.4583 17.2916C13.4064 17.1711 13.3322 17.0616 13.2396 16.9687V16.9687ZM16.6666 2.08325H8.33331C7.50451 2.08325 6.70966 2.41249 6.1236 2.99854C5.53755 3.58459 5.20831 4.37945 5.20831 5.20825V19.7916C5.20831 20.6204 5.53755 21.4152 6.1236 22.0013C6.70966 22.5873 7.50451 22.9166 8.33331 22.9166H16.6666C17.4954 22.9166 18.2903 22.5873 18.8764 22.0013C19.4624 21.4152 19.7916 20.6204 19.7916 19.7916V5.20825C19.7916 4.37945 19.4624 3.58459 18.8764 2.99854C18.2903 2.41249 17.4954 2.08325 16.6666 2.08325ZM17.7083 19.7916C17.7083 20.0679 17.5986 20.3328 17.4032 20.5282C17.2079 20.7235 16.9429 20.8333 16.6666 20.8333H8.33331C8.05705 20.8333 7.79209 20.7235 7.59674 20.5282C7.40139 20.3328 7.29165 20.0679 7.29165 19.7916V5.20825C7.29165 4.93198 7.40139 4.66703 7.59674 4.47168C7.79209 4.27633 8.05705 4.16659 8.33331 4.16659H16.6666C16.9429 4.16659 17.2079 4.27633 17.4032 4.47168C17.5986 4.66703 17.7083 4.93198 17.7083 5.20825V19.7916Z" fill="white"/>
</svg>
