<svg width="75" height="24" viewBox="0 0 75 24" fill="none" xmlns="http://www.w3.org/2000/svg">
<path d="M12.71 16.29L12.56 16.17C12.5043 16.1322 12.4437 16.1019 12.38 16.08L12.2 16C12.0378 15.9661 11.8698 15.973 11.7109 16.0201C11.5521 16.0673 11.4074 16.1531 11.29 16.27C11.2017 16.3672 11.1306 16.4788 11.08 16.6C11.0043 16.7822 10.9842 16.9827 11.0223 17.1763C11.0603 17.3699 11.1547 17.5479 11.2937 17.688C11.4327 17.828 11.61 17.9238 11.8033 17.9633C11.9966 18.0028 12.1972 17.9843 12.38 17.91C12.4995 17.852 12.6105 17.778 12.71 17.69C12.8488 17.5494 12.9428 17.3708 12.9801 17.1768C13.0175 16.9828 12.9966 16.7821 12.92 16.6C12.8701 16.4844 12.7989 16.3792 12.71 16.29V16.29ZM16 2H8.00001C7.20436 2 6.44129 2.31607 5.87869 2.87868C5.31608 3.44129 5.00001 4.20435 5.00001 5V19C5.00001 19.7956 5.31608 20.5587 5.87869 21.1213C6.44129 21.6839 7.20436 22 8.00001 22H16C16.7957 22 17.5587 21.6839 18.1213 21.1213C18.6839 20.5587 19 19.7956 19 19V5C19 4.20435 18.6839 3.44129 18.1213 2.87868C17.5587 2.31607 16.7957 2 16 2ZM17 19C17 19.2652 16.8947 19.5196 16.7071 19.7071C16.5196 19.8946 16.2652 20 16 20H8.00001C7.73479 20 7.48044 19.8946 7.2929 19.7071C7.10536 19.5196 7.00001 19.2652 7.00001 19V5C7.00001 4.73478 7.10536 4.48043 7.2929 4.29289C7.48044 4.10536 7.73479 4 8.00001 4H16C16.2652 4 16.5196 4.10536 16.7071 4.29289C16.8947 4.48043 17 4.73478 17 5V19Z" fill="white"/>
<path d="M70 3H56C55.2044 3 54.4413 3.31607 53.8787 3.87868C53.3161 4.44129 53 5.20435 53 6V14C53 14.7956 53.3161 15.5587 53.8787 16.1213C54.4413 16.6839 55.2044 17 56 17H62V19H58C57.7348 19 57.4804 19.1054 57.2929 19.2929C57.1054 19.4804 57 19.7348 57 20C57 20.2652 57.1054 20.5196 57.2929 20.7071C57.4804 20.8946 57.7348 21 58 21H68C68.2652 21 68.5196 20.8946 68.7071 20.7071C68.8946 20.5196 69 20.2652 69 20C69 19.7348 68.8946 19.4804 68.7071 19.2929C68.5196 19.1054 68.2652 19 68 19H64V17H70C70.7956 17 71.5587 16.6839 72.1213 16.1213C72.6839 15.5587 73 14.7956 73 14V6C73 5.20435 72.6839 4.44129 72.1213 3.87868C71.5587 3.31607 70.7956 3 70 3ZM71 14C71 14.2652 70.8946 14.5196 70.7071 14.7071C70.5196 14.8946 70.2652 15 70 15H56C55.7348 15 55.4804 14.8946 55.2929 14.7071C55.1054 14.5196 55 14.2652 55 14V6C55 5.73478 55.1054 5.48043 55.2929 5.29289C55.4804 5.10536 55.7348 5 56 5H70C70.2652 5 70.5196 5.10536 70.7071 5.29289C70.8946 5.48043 71 5.73478 71 6V14Z" fill="white"/>
<path d="M36.5 6.95825V18.0416" stroke="white" stroke-width="2" stroke-linecap="round" stroke-linejoin="round"/>
<path d="M30.9583 12.5H42.0417" stroke="white" stroke-width="2" stroke-linecap="round" stroke-linejoin="round"/>
</svg>
