<svg width="33" height="25" viewBox="0 0 33 25" fill="none" xmlns="http://www.w3.org/2000/svg">
<path d="M29.6875 0H3.07114C1.37761 0 0 1.40178 0 3.12502V21.875C0 23.5982 1.37761 25 3.07114 25H29.6875C31.381 25 32.7586 23.5982 32.7586 21.875V3.12502C32.7586 1.40178 31.381 0 29.6875 0ZM29.6875 2.08332C29.8266 2.08332 29.9589 2.11268 30.0798 2.16397L16.3793 14.2466L2.6787 2.16397C2.79967 2.11275 2.93199 2.08332 3.07107 2.08332H29.6875ZM29.6875 22.9166H3.07114C2.50631 22.9166 2.04741 22.4497 2.04741 21.8749V4.36502L15.7085 16.4123C15.9015 16.5822 16.1404 16.6666 16.3793 16.6666C16.6182 16.6666 16.8572 16.5822 17.0501 16.4123L30.7112 4.36502V21.875C30.7111 22.4497 30.2523 22.9166 29.6875 22.9166Z" fill="#25CBFF"/>
</svg>
